<?xml version="1.0" encoding="UTF-8" standalone="no"?>
<!-- Generator: Adobe Illustrator 19.0.0, SVG Export Plug-In . SVG Version: 6.00 Build 0)  -->

<svg
   xmlns:dc="http://purl.org/dc/elements/1.1/"
   xmlns:cc="http://creativecommons.org/ns#"
   xmlns:rdf="http://www.w3.org/1999/02/22-rdf-syntax-ns#"
   xmlns:svg="http://www.w3.org/2000/svg"
   xmlns="http://www.w3.org/2000/svg"
   xmlns:sodipodi="http://sodipodi.sourceforge.net/DTD/sodipodi-0.dtd"
   xmlns:inkscape="http://www.inkscape.org/namespaces/inkscape"
   version="1.1"
   id="Layer_1"
   x="0px"
   y="0px"
   viewBox="0 0 512 621"
   xml:space="preserve"
   sodipodi:docname="copydeck-logo.svg"
   width="512"
   height="621"
   inkscape:version="0.92.1 r15371"><metadata
     id="metadata83"><rdf:RDF><cc:Work
         rdf:about=""><dc:format>image/svg+xml</dc:format><dc:type
           rdf:resource="http://purl.org/dc/dcmitype/StillImage" /><dc:title></dc:title></cc:Work></rdf:RDF></metadata><defs
     id="defs81" /><sodipodi:namedview
     pagecolor="#ffffff"
     bordercolor="#666666"
     borderopacity="1"
     objecttolerance="10"
     gridtolerance="10"
     guidetolerance="10"
     inkscape:pageopacity="0"
     inkscape:pageshadow="2"
     inkscape:window-width="1920"
     inkscape:window-height="1057"
     id="namedview79"
     showgrid="false"
     inkscape:zoom="0.4609375"
     inkscape:cx="256"
     inkscape:cy="256"
     inkscape:window-x="1912"
     inkscape:window-y="-8"
     inkscape:window-maximized="1"
     inkscape:current-layer="Layer_1" /><polygon
     style="fill:#ffeab5"
     points="149.787,29.957 204.255,62.638 204.255,269.617 149.787,302.298 "
     id="polygon2"
     transform="translate(2.1694915,50.423729)" /><polygon
     style="fill:#ffffff"
     points="8.17,62.638 171.574,40.851 171.574,291.404 8.17,269.617 "
     id="polygon4"
     transform="translate(2.1694915,50.423729)" /><g
     id="g10"
     transform="translate(2.1694915,50.423729)"><path
       style="fill:#27467a"
       d="m 171.574,269.617 -32.681,54.468 h 32.681 c 17.974,0 32.681,-14.706 32.681,-32.681 v -21.787 z"
       id="path6"
       inkscape:connector-curvature="0" /><path
       style="fill:#27467a"
       d="m 171.574,8.17 h -32.681 l 32.681,54.468 h 32.681 V 40.851 C 204.255,22.877 189.549,8.17 171.574,8.17 Z"
       id="path8"
       inkscape:connector-curvature="0" /></g><g
     id="g16"
     transform="translate(2.1694915,50.423729)"><path
       style="fill:#2f5e88"
       d="m 171.574,269.617 v 21.787 c 0,17.974 -14.706,32.681 -32.681,32.681 H 40.851 C 22.877,324.085 8.17,309.379 8.17,291.404 v -21.787 z"
       id="path12"
       inkscape:connector-curvature="0" /><path
       style="fill:#2f5e88"
       d="M 171.574,40.851 V 62.638 H 8.17 V 40.851 C 8.17,22.877 22.877,8.17 40.851,8.17 h 98.043 c 17.974,0 32.68,14.707 32.68,32.681 z"
       id="path14"
       inkscape:connector-curvature="0" /></g><polygon
     style="fill:#ffeab5"
     points="449.362,29.957 503.83,62.638 503.83,269.617 449.362,302.298 "
     id="polygon18"
     transform="translate(2.1694915,50.423729)" /><polygon
     style="fill:#ffffff"
     points="307.745,62.638 471.149,40.851 471.149,291.404 307.745,269.617 "
     id="polygon20"
     transform="translate(2.1694915,50.423729)" /><g
     id="g26"
     transform="translate(2.1694915,50.423729)"><path
       style="fill:#367596"
       d="m 471.149,269.617 -32.681,54.468 h 32.681 c 17.974,0 32.681,-14.706 32.681,-32.681 v -21.787 z"
       id="path22"
       inkscape:connector-curvature="0" /><path
       style="fill:#367596"
       d="m 471.149,8.17 h -32.681 l 32.681,54.468 H 503.83 V 40.851 C 503.83,22.877 489.123,8.17 471.149,8.17 Z"
       id="path24"
       inkscape:connector-curvature="0" /></g><g
     id="g32"
     transform="translate(2.1694915,50.423729)"><path
       style="fill:#5195af"
       d="m 471.149,269.617 v 21.787 c 0,17.974 -14.706,32.681 -32.681,32.681 h -98.043 c -17.974,0 -32.681,-14.706 -32.681,-32.681 v -21.787 z"
       id="path28"
       inkscape:connector-curvature="0" /><path
       style="fill:#5195af"
       d="M 471.149,40.851 V 62.638 H 307.745 V 40.851 c 0,-17.974 14.706,-32.681 32.681,-32.681 h 98.043 c 17.974,0 32.68,14.707 32.68,32.681 z"
       id="path30"
       inkscape:connector-curvature="0" /></g><polygon
     style="fill:#ff754f"
     points="326.809,416.681 326.809,384 294.128,384 261.447,449.362 "
     id="polygon34"
     transform="translate(2.1694915,50.423729)" /><polygon
     style="fill:#ff9269"
     points="294.128,384 256,384 223.319,449.362 294.128,449.362 "
     id="polygon36"
     transform="translate(2.1694915,50.423729)" /><path
     style="fill:#ffb082"
     d="m 296.29749,467.10473 -21.787,49.021 21.787,38.128 h 16.34 c 8.987,0 16.34,-7.353 16.34,-16.34 v -70.809 z"
     id="path38"
     inkscape:connector-curvature="0" /><path
     style="fill:#ffcd9c"
     d="m 258.16949,467.10473 v -32.681 h -70.809 v 103.489 c 0,8.987 7.353,16.34 16.34,16.34 h 92.596 v -87.149 h -38.127 z"
     id="path40"
     inkscape:connector-curvature="0" /><path
     d="M 214.59549,341.82773 V 91.274729 c 0,-22.526 -18.326,-40.851 -40.852,-40.851 H 43.020492 c -22.526,0 -40.8510005,18.325 -40.8510005,40.851 V 341.82773 c 0,22.526 18.3250005,40.851 40.8510005,40.851 H 173.74349 c 22.526,0 40.852,-18.325 40.852,-40.851 z M 43.020492,66.763729 H 173.74349 c 13.515,0 24.511,10.996 24.511,24.511 V 104.89173 H 75.701492 c -4.513,0 -8.17,3.657 -8.17,8.17 0,4.513 3.657,8.17 8.17,8.17 H 198.25449 v 190.638 H 18.509492 v -190.637 h 24.511 c 4.513,0 8.17,-3.657 8.17,-8.17 0,-4.513 -3.657,-8.17 -8.17,-8.17 h -24.511 V 91.274729 c 0,-13.515 10.996,-24.511 24.511,-24.511 z m -24.511,275.064001 v -13.617 H 198.25449 v 13.617 c 0,13.515 -10.996,24.511 -24.511,24.511 H 43.020492 c -13.515,0 -24.511,-10.996 -24.511,-24.511 z"
     id="path42"
     inkscape:connector-curvature="0" /><path
     d="m 473.31849,50.423729 h -130.723 c -22.526,0 -40.851,18.325 -40.851,40.851 V 341.82773 c 0,22.526 18.325,40.851 40.851,40.851 h 130.723 c 22.526,0 40.851,-18.325 40.851,-40.851 V 91.274729 c 0,-22.526 -18.325,-40.851 -40.851,-40.851 z m -130.723,16.34 h 130.723 c 13.515,0 24.511,10.996 24.511,24.511 v 13.617001 h -179.745 V 91.274729 c 0,-13.515 10.996,-24.511 24.511,-24.511 z m 130.723,299.575001 h -130.723 c -13.515,0 -24.511,-10.996 -24.511,-24.511 v -13.617 h 122.553 c 4.513,0 8.17,-3.657 8.17,-8.17 0,-4.513 -3.657,-8.17 -8.17,-8.17 h -122.553 v -190.638 h 179.745 v 190.638 h -24.511 c -4.513,0 -8.17,3.657 -8.17,8.17 0,4.513 3.657,8.17 8.17,8.17 h 24.511 v 13.617 c 0,13.515 -10.996,24.511 -24.511,24.511 z"
     id="path44"
     inkscape:connector-curvature="0" /><path
     d="m 407.95649,399.01973 c -4.513,0 -8.17,3.657 -8.17,8.17 v 78.979 h -62.638 v -51.745 c 0,-4.513 -3.657,-8.17 -8.17,-8.17 h -38.128 c -4.513,0 -8.17,3.657 -8.17,8.17 0,4.513 3.657,8.17 8.17,8.17 h 29.957 v 16.34 h -54.468 v -24.51 c 0,-4.513 -3.657,-8.17 -8.17,-8.17 h -70.809 c -4.513,0 -8.17,3.657 -8.17,8.17 v 51.745 h -62.638 v -78.979 c 0,-4.513 -3.657,-8.17 -8.17,-8.17 -4.513,0 -8.17,3.657 -8.17,8.17 v 87.149 c 0,4.513 3.657,8.17 8.17,8.17 h 70.809 v 35.404 c 0,13.515 10.996,24.511 24.511,24.511 h 108.936 c 13.515,0 24.511,-10.996 24.511,-24.511 v -35.404 h 70.809 c 4.513,0 8.17,-3.657 8.17,-8.17 v -87.149 c -0.002,-4.513 -3.659,-8.17 -8.172,-8.17 z m -87.149,138.893 c 0,4.506 -3.665,8.17 -8.17,8.17 h -108.936 c -4.506,0 -8.17,-3.665 -8.17,-8.17 v -95.319 h 54.468 v 24.511 c 0,4.513 3.657,8.17 8.17,8.17 h 62.638 z"
     id="path46"
     inkscape:connector-curvature="0" /><g
     id="g48"
     transform="translate(0,109)" /><g
     id="g50"
     transform="translate(0,109)" /><g
     id="g52"
     transform="translate(0,109)" /><g
     id="g54"
     transform="translate(0,109)" /><g
     id="g56"
     transform="translate(0,109)" /><g
     id="g58"
     transform="translate(0,109)" /><g
     id="g60"
     transform="translate(0,109)" /><g
     id="g62"
     transform="translate(0,109)" /><g
     id="g64"
     transform="translate(0,109)" /><g
     id="g66"
     transform="translate(0,109)" /><g
     id="g68"
     transform="translate(0,109)" /><g
     id="g70"
     transform="translate(0,109)" /><g
     id="g72"
     transform="translate(0,109)" /><g
     id="g74"
     transform="translate(0,109)" /><g
     id="g76"
     transform="translate(0,109)" /><g
     id="g4937"
     transform="matrix(0.67954134,0,0,0.67954134,155.31645,400.76709)"><g
       id="g4865"><polygon
         id="polygon4831"
         points="277.846,58.025 227.321,7.5 40.342,7.5 40.342,310.688 277.846,310.688 "
         style="fill:#e4e4e4" /><polygon
         id="polygon4833"
         points="227.321,7.5 235.14,32.763 40.342,32.763 40.342,7.5 "
         style="fill:#007934" /><polygon
         id="polygon4835"
         points="227.321,58.025 277.846,58.025 227.321,7.5 "
         style="fill:#d1d3d3" /><g
         id="g4861"><rect
           id="rect4837"
           height="15.418"
           width="33.273998"
           style="fill:#007934"
           y="87.844002"
           x="142.457" /><rect
           id="rect4839"
           height="15.418"
           width="33.272999"
           style="fill:#007934"
           y="87.844002"
           x="183.10201" /><rect
           id="rect4841"
           height="15.419"
           width="33.273998"
           style="fill:#007934"
           y="110.161"
           x="142.457" /><rect
           id="rect4843"
           height="15.419"
           width="33.272999"
           style="fill:#007934"
           y="110.161"
           x="183.10201" /><rect
           id="rect4845"
           height="15.418"
           width="33.273998"
           style="fill:#007934"
           y="132.479"
           x="142.457" /><rect
           id="rect4847"
           height="15.418"
           width="33.272999"
           style="fill:#007934"
           y="132.479"
           x="183.10201" /><rect
           id="rect4849"
           height="15.418"
           width="33.272999"
           style="fill:#007934"
           y="132.479"
           x="101.812" /><rect
           id="rect4851"
           height="15.418"
           width="33.273998"
           style="fill:#007934"
           y="154.798"
           x="142.457" /><rect
           id="rect4853"
           height="15.418"
           width="33.272999"
           style="fill:#007934"
           y="154.798"
           x="183.10201" /><rect
           id="rect4855"
           height="15.418"
           width="33.272999"
           style="fill:#007934"
           y="154.798"
           x="101.812" /><g
           id="g4859"><path
             id="path4857"
             d="m 134.588,123.662 h -10.041 l -6.262,-10.041 -6.196,10.041 h -9.821 L 112.924,107.227 102.906,91.54 h 9.624 l 5.8,9.932 5.581,-9.932 h 9.909 l -10.173,16.369 z"
             style="fill:#007934"
             inkscape:connector-curvature="0" /></g></g><path
         id="path4863"
         d="M 283.149,52.723 232.625,2.197 C 231.218,0.79 229.311,0 227.321,0 H 40.342 c -4.142,0 -7.5,3.358 -7.5,7.5 v 303.188 c 0,4.143 3.358,7.5 7.5,7.5 h 237.504 c 4.142,0 7.5,-3.357 7.5,-7.5 V 58.025 c 0,-1.989 -0.79,-3.896 -2.197,-5.302 z M 234.821,25.606 259.739,50.525 H 234.821 Z M 47.842,15 H 219.821 V 25.263 H 47.842 Z M 270.346,303.188 H 47.842 V 40.263 h 171.979 v 17.763 c 0,4.143 3.358,7.5 7.5,7.5 h 43.024 V 303.188 Z M 122.372,235.484 c 1.969,0 3.809,0.275 5.523,0.826 1.713,0.55 3.428,1.227 5.141,2.031 l 3.841,-9.871 c -4.57,-2.18 -9.362,-3.27 -14.378,-3.27 -4.591,0 -8.585,0.979 -11.98,2.937 -3.396,1.957 -5.999,4.755 -7.808,8.395 -1.81,3.64 -2.714,7.86 -2.714,12.663 0,7.682 1.867,13.553 5.602,17.615 3.735,4.062 9.104,6.094 16.107,6.094 4.888,0 9.268,-0.857 13.14,-2.57 v -10.602 c -1.947,0.805 -3.883,1.492 -5.808,2.063 -1.926,0.571 -3.915,0.856 -5.967,0.856 -6.793,0 -10.188,-4.464 -10.188,-13.393 0,-4.295 0.836,-7.665 2.507,-10.109 1.672,-2.442 4,-3.665 6.982,-3.665 z m 33.231,0.604 c 0.74,-0.571 1.925,-0.857 3.555,-0.857 3.152,0 6.897,0.995 11.234,2.984 l 3.841,-9.681 c -4.994,-2.222 -9.892,-3.333 -14.694,-3.333 -5.438,0 -9.713,1.196 -12.822,3.587 -3.111,2.392 -4.666,5.724 -4.666,9.997 0,2.285 0.365,4.264 1.095,5.936 0.73,1.672 1.852,3.152 3.364,4.443 1.512,1.291 3.782,2.624 6.809,3.999 3.343,1.503 5.4,2.497 6.173,2.983 0.771,0.486 1.333,0.968 1.682,1.444 0.35,0.476 0.524,1.031 0.524,1.666 0,1.016 -0.435,1.847 -1.302,2.491 -0.868,0.646 -2.232,0.969 -4.095,0.969 -2.158,0 -4.527,-0.344 -7.109,-1.032 -2.581,-0.687 -5.067,-1.645 -7.458,-2.872 v 11.172 c 2.264,1.079 4.443,1.836 6.538,2.27 2.095,0.434 4.687,0.65 7.775,0.65 3.703,0 6.93,-0.619 9.681,-1.856 2.75,-1.238 4.856,-2.973 6.315,-5.205 1.461,-2.232 2.19,-4.787 2.19,-7.665 0,-3.131 -0.777,-5.729 -2.333,-7.792 -1.555,-2.063 -4.332,-3.993 -8.331,-5.792 -4.169,-1.904 -6.724,-3.216 -7.665,-3.936 -0.941,-0.719 -1.412,-1.533 -1.412,-2.443 -10e-4,-0.847 0.369,-1.556 1.111,-2.127 z m 45.418,13.426 c -0.339,1.27 -0.73,3.015 -1.174,5.236 -0.445,2.222 -0.741,4.073 -0.889,5.555 -0.127,-2.053 -0.847,-5.691 -2.158,-10.918 l -6.316,-23.519 h -14.092 l 15.139,46.401 h 14.759 l 15.202,-46.401 h -14.027 z"
         style="fill:#333e48"
         inkscape:connector-curvature="0" /></g><g
       id="g4867" /><g
       id="g4869" /><g
       id="g4871" /><g
       id="g4873" /><g
       id="g4875" /><g
       id="g4877" /><g
       id="g4879" /><g
       id="g4881" /><g
       id="g4883" /><g
       id="g4885" /><g
       id="g4887" /><g
       id="g4889" /><g
       id="g4891" /><g
       id="g4893" /><g
       id="g4895" /></g><g
     id="g5006"
     transform="matrix(0.41887113,0,0,0.41887113,18.694754,125.88911)"><g
       id="g4947"><path
         id="path4939"
         d="M 311.358,136.395 H 101.779 c -4.662,0 -8.441,3.779 -8.441,8.441 v 175.749 c 0,4.662 3.779,8.441 8.441,8.441 h 37.363 v 59.228 c 0,13.742 11.14,24.883 24.883,24.883 v 0 c 13.742,0 24.883,-11.14 24.883,-24.883 v -59.228 h 34.803 v 59.228 c 0,13.742 11.14,24.883 24.883,24.883 v 0 c 13.742,0 24.883,-11.14 24.883,-24.883 v -59.228 h 37.882 c 4.662,0 8.441,-3.779 8.441,-8.441 V 144.836 c -0.001,-4.662 -3.78,-8.441 -8.442,-8.441 z"
         style="fill:#aac148"
         inkscape:connector-curvature="0" /><path
         id="path4941"
         d="m 57.856,136.354 v 0 c -13.742,0 -24.883,11.14 -24.883,24.883 v 101.065 c 0,13.742 11.14,24.883 24.883,24.883 v 0 c 13.742,0 24.883,-11.14 24.883,-24.883 V 161.237 C 82.738,147.495 71.598,136.354 57.856,136.354 Z"
         style="fill:#aac148"
         inkscape:connector-curvature="0" /><path
         id="path4943"
         d="m 355.281,136.354 v 0 c -13.742,0 -24.883,11.14 -24.883,24.883 v 101.065 c 0,13.742 11.14,24.883 24.883,24.883 v 0 c 13.742,0 24.883,-11.14 24.883,-24.883 V 161.237 c 0,-13.742 -11.14,-24.883 -24.883,-24.883 z"
         style="fill:#aac148"
         inkscape:connector-curvature="0" /><path
         id="path4945"
         d="m 103.475,124.069 h 205.692 c 5.366,0 9.368,-4.943 8.266,-10.195 -6.804,-32.428 -27.45,-59.756 -55.465,-75.543 L 279.552,6.604 c 1.19,-2.148 0.414,-4.855 -1.734,-6.045 -2.153,-1.193 -4.856,-0.414 -6.046,1.734 l -17.717,31.966 c -14.511,-6.734 -30.683,-10.495 -47.734,-10.495 -17.052,0 -33.224,3.761 -47.735,10.495 L 140.869,2.292 c -1.191,-2.149 -3.898,-2.924 -6.045,-1.734 -2.148,1.19 -2.924,3.897 -1.734,6.045 l 17.584,31.727 c -28.015,15.788 -48.661,43.115 -55.465,75.544 -1.103,5.252 2.899,10.195 8.266,10.195 z M 267.697,76.786 c 0,5.282 -4.282,9.565 -9.565,9.565 -5.282,0 -9.565,-4.282 -9.565,-9.565 0,-5.282 4.282,-9.565 9.565,-9.565 5.283,0 9.565,4.283 9.565,9.565 z M 154.508,67.221 c 5.282,0 9.565,4.282 9.565,9.565 0,5.282 -4.282,9.565 -9.565,9.565 -5.282,0 -9.565,-4.282 -9.565,-9.565 0,-5.282 4.282,-9.565 9.565,-9.565 z"
         style="fill:#aac148"
         inkscape:connector-curvature="0" /></g><g
       id="g4949" /><g
       id="g4951" /><g
       id="g4953" /><g
       id="g4955" /><g
       id="g4957" /><g
       id="g4959" /><g
       id="g4961" /><g
       id="g4963" /><g
       id="g4965" /><g
       id="g4967" /><g
       id="g4969" /><g
       id="g4971" /><g
       id="g4973" /><g
       id="g4975" /><g
       id="g4977" /></g><g
     id="g5072"
     transform="matrix(0.3835835,0,0,0.3835835,315.66132,123.11752)"><g
       id="g5014"><g
         id="g5012"><path
           id="path5008"
           d="m 391.29,310.91 c -13.135,-18.842 -19.698,-40.07 -19.698,-63.666 0,-21.508 6.194,-41.213 18.556,-59.102 6.662,-9.707 17.514,-20.934 32.551,-33.689 -9.896,-12.178 -19.793,-21.695 -29.697,-28.549 -17.891,-12.37 -38.164,-18.555 -60.812,-18.555 -13.511,0 -29.979,3.234 -49.389,9.71 -18.654,6.471 -32.265,9.71 -40.826,9.71 -6.475,0 -19.606,-2.853 -39.401,-8.566 -19.985,-5.711 -36.831,-8.564 -50.535,-8.564 -32.738,0 -59.766,13.706 -81.083,41.112 -21.508,27.79 -32.264,63.382 -32.264,106.78 0,46.062 13.993,93.928 41.971,143.607 28.358,49.297 57.005,73.949 85.936,73.949 9.707,0 22.27,-3.237 37.685,-9.708 15.42,-6.276 28.933,-9.421 40.545,-9.421 12.368,0 26.741,3.045 43.109,9.133 17.319,6.085 30.646,9.131 39.971,9.131 24.362,0 48.824,-18.654 73.374,-55.959 15.985,-23.791 27.692,-47.582 35.115,-71.376 -16.94,-5.143 -31.974,-17.134 -45.108,-35.977 z"
           inkscape:connector-curvature="0" /><path
           id="path5010"
           d="m 294.213,90.219 c 11.994,-11.991 20.844,-25.126 26.556,-39.399 5.517,-14.275 8.271,-27.22 8.271,-38.832 0,-0.759 -0.041,-1.712 -0.144,-2.855 C 328.81,7.991 328.759,7.042 328.759,6.28 328.567,5.708 328.331,4.661 328.047,3.14 327.763,1.619 327.526,0.572 327.331,0 c -33.499,7.808 -57.29,21.892 -71.376,42.259 -14.271,20.557 -21.698,45.013 -22.27,73.373 12.753,-1.143 22.646,-2.758 29.692,-4.853 10.286,-3.427 20.552,-10.282 30.836,-20.56 z"
           inkscape:connector-curvature="0" /></g></g><g
       id="g5016" /><g
       id="g5018" /><g
       id="g5020" /><g
       id="g5022" /><g
       id="g5024" /><g
       id="g5026" /><g
       id="g5028" /><g
       id="g5030" /><g
       id="g5032" /><g
       id="g5034" /><g
       id="g5036" /><g
       id="g5038" /><g
       id="g5040" /><g
       id="g5042" /><g
       id="g5044" /></g></svg>